<?xml version="1.0" encoding="UTF-8"?>
<svg id="Laag_1" data-name="Laag 1" xmlns="http://www.w3.org/2000/svg" viewBox="0 0 500 407.17">
  <defs>
    <style>
      .cls-1 {
        fill: #f7eac3;
      }
    </style>
  </defs>
  <path class="cls-1" d="M49.8,258.57l-18.14,42.75h10.2l2.99-7.82h19.24l3.05,7.82h10.2l-18.02-42.75h-9.53ZM47.78,285.68l6.78-17.89,6.47,17.89h-13.25Z"/>
  <polygon class="cls-1" points="107.82 276.83 92.92 258.57 84.74 258.57 84.74 301.32 94.08 301.32 94.08 272.92 107.82 289.47 121.44 272.92 121.44 301.32 130.84 301.32 130.84 258.57 122.48 258.57 107.82 276.83"/>
  <path class="cls-1" d="M159.56,275.73c-4.4-.92-8.43-1.89-8.43-5.5,0-3.12,3.11-3.97,6.6-3.97,3.85,0,8.12.92,12.95,2.81l2.57-8.85c-5.07-1.65-9.83-2.44-14.96-2.44-10.69,0-16.61,4.64-16.61,12.52s5.98,11.66,15.57,13.68c4.58.92,7.57,2.01,7.57,5.07,0,3.36-2.99,4.52-7.33,4.52s-8.06-.86-14.6-3.6l-3.3,8.67c5.62,2.2,11.85,3.48,17.83,3.48,9.77,0,16.98-4.15,16.98-13.13,0-7.82-5.86-11.42-14.84-13.25Z"/>
  <polygon class="cls-1" points="179.96 266.87 192.79 266.87 192.79 301.32 202.13 301.32 202.13 266.87 214.89 266.87 214.89 258.57 179.96 258.57 179.96 266.87"/>
  <polygon class="cls-1" points="253.49 293.07 232.79 293.07 232.79 283.36 250.93 283.36 250.93 275.55 232.79 275.55 232.79 266.75 252.64 266.75 252.64 258.57 223.45 258.57 223.45 301.32 253.49 301.32 253.49 293.07"/>
  <path class="cls-1" d="M288.74,301.32h10.81l-9.9-15.63c4.7-2.32,7.57-6.78,7.57-12.64,0-8.67-6.35-14.47-15.88-14.47h-17.83v42.75h9.35v-13.86h7.57l8.31,13.86ZM272.86,266.81h8.31c4.15,0,6.6,2.44,6.6,6.35s-2.44,6.47-6.6,6.47h-8.31v-12.82Z"/>
  <path class="cls-1" d="M347.49,279.82c0-12.82-8.55-21.25-21.44-21.25h-17.83v42.75h17.83c12.89,0,21.44-8.55,21.44-21.5ZM317.57,292.83v-25.77h8.31c7.63,0,12.09,4.83,12.09,12.76s-4.46,13.01-12.09,13.01h-8.31Z"/>
  <path class="cls-1" d="M351.11,301.32h10.2l2.99-7.82h19.24l3.05,7.82h10.2l-18.01-42.75h-9.53l-18.14,42.75ZM380.48,285.68h-13.25l6.78-17.89,6.47,17.89Z"/>
  <polygon class="cls-1" points="450.29 301.32 450.29 258.57 441.92 258.57 427.27 276.83 412.37 258.57 404.18 258.57 404.18 301.32 413.53 301.32 413.53 272.92 427.27 289.47 440.88 272.92 440.88 301.32 450.29 301.32"/>
  <polygon class="cls-1" points="470.74 289.35 466.81 293.28 462.88 289.35 460.43 291.8 464.36 295.73 460.43 299.66 462.88 302.11 466.81 298.18 470.74 302.11 473.19 299.66 469.26 295.73 473.19 291.8 470.74 289.35"/>
  <polygon class="cls-1" points="470.74 273.96 466.81 277.89 462.88 273.96 460.43 276.41 464.36 280.34 460.43 284.27 462.88 286.72 466.81 282.79 470.74 286.72 473.19 284.27 469.26 280.34 473.19 276.41 470.74 273.96"/>
  <polygon class="cls-1" points="473.19 261.02 470.74 258.57 466.81 262.5 462.88 258.57 460.43 261.02 464.36 264.95 460.43 268.89 462.88 271.33 466.81 267.4 470.74 271.33 473.19 268.89 469.26 264.95 473.19 261.02"/>
  <path class="cls-1" d="M208.14,90.41v19.09h20.97v-19.09h-20.97ZM227.58,107.96h-17.9v-16.02h17.9v16.02Z"/>
  <path class="cls-1" d="M250.85,167.21h-15.33v18.67h15.33v-18.67ZM249.31,184.35h-12.26v-15.6h12.26v15.6Z"/>
  <path class="cls-1" d="M227.13,167.21h-15.33v18.67h15.33v-18.67ZM225.59,184.35h-12.26v-15.6h12.26v15.6Z"/>
  <path class="cls-1" d="M202.99,185.88v-18.67h-15.33v18.67h15.33ZM189.19,168.75h12.26v15.6h-12.26v-15.6Z"/>
  <path class="cls-1" d="M250.79,129.17h-15.33v18.67h15.33v-18.67ZM249.26,146.31h-12.26v-15.6h12.26v15.6Z"/>
  <path class="cls-1" d="M226.86,129.17h-15.33v18.67h15.33v-18.67ZM225.33,146.31h-12.26v-15.6h12.26v15.6Z"/>
  <path class="cls-1" d="M202.93,147.85v-18.67h-15.33v18.67h15.33ZM189.14,130.71h12.26v15.6h-12.26v-15.6Z"/>
  <path class="cls-1" d="M219.62,84.84c3.22,0,5.84-2.62,5.84-5.84s-2.62-5.84-5.84-5.84-5.84,2.62-5.84,5.84,2.62,5.84,5.84,5.84ZM219.62,74.7c2.37,0,4.3,1.93,4.3,4.3s-1.93,4.3-4.3,4.3-4.3-1.93-4.3-4.3,1.93-4.3,4.3-4.3Z"/>
  <path class="cls-1" d="M141.39,97.46h-16.9v46.99h16.9v-46.99ZM139.85,98.99v12.66h-13.83v-12.66h13.83ZM139.85,113.19v16.02h-13.83v-16.02h13.83ZM126.03,142.91v-12.17h13.83v12.17h-13.83Z"/>
  <path class="cls-1" d="M166.47,97.46h-16.9v46.99h16.9v-46.99ZM164.93,98.99v12.73h-13.83v-12.73h13.83ZM164.93,113.26v16.02h-13.83v-16.02h13.83ZM151.11,142.91v-12.1h13.83v12.1h-13.83Z"/>
  <path class="cls-1" d="M116.94,97.77h-16.9v46.99h16.9v-46.99ZM115.4,99.31v12.41h-13.83v-12.41h13.83ZM115.4,113.26v16.02h-13.83v-16.02h13.83ZM101.57,143.23v-12.41h13.83v12.41h-13.83Z"/>
  <path class="cls-1" d="M116.94,153.29h-16.9v37.11h16.9v-37.11ZM115.4,154.82v16.25h-13.83v-16.25h13.83ZM101.57,188.86v-16.25h13.83v16.25h-13.83Z"/>
  <path class="cls-1" d="M124.96,190.39h16.9v-37.11h-16.9v37.11ZM126.5,188.86v-16.25h13.83v16.25h-13.83ZM140.32,154.82v16.25h-13.83v-16.25h13.83Z"/>
  <path class="cls-1" d="M166.47,153.29h-16.9v37.11h16.9v-37.11ZM164.93,154.82v16.25h-13.83v-16.25h13.83ZM151.11,188.86v-16.25h13.83v16.25h-13.83Z"/>
  <path class="cls-1" d="M112.12,198.87h-6.63c-2.83,0-5.13,2.3-5.13,5.13v22.89h16.9v-22.89c0-2.83-2.3-5.13-5.13-5.13ZM105.48,200.41h6.63c1.98,0,3.6,1.61,3.6,3.6v2.55h-13.83v-2.55c0-1.98,1.61-3.6,3.6-3.6ZM101.89,225.36v-17.27h13.83v17.27h-13.83Z"/>
  <path class="cls-1" d="M161.65,198.87h-6.63c-2.83,0-5.13,2.3-5.13,5.13v2.55h-.07v1.54h.07v18.81h16.9v-22.89c0-2.83-2.3-5.13-5.13-5.13ZM155.02,200.41h6.63c1.98,0,3.6,1.61,3.6,3.6v2.55h-13.83v-2.55c0-1.98,1.61-3.6,3.6-3.6ZM151.42,225.36v-17.27h13.83v17.27h-13.83Z"/>
  <path class="cls-1" d="M133.8,62.51c-4.79,0-8.68,3.9-8.68,8.68s3.9,8.68,8.68,8.68,8.68-3.9,8.68-8.68-3.9-8.68-8.68-8.68ZM140.87,70.43h-6.3v-6.3c3.32.36,5.94,2.98,6.3,6.3ZM133.03,64.12v6.3h-6.3c.36-3.32,2.98-5.94,6.3-6.3ZM126.73,71.96h6.3v6.3c-3.32-.36-5.94-2.98-6.3-6.3ZM134.57,78.26v-6.3h6.3c-.36,3.32-2.98,5.94-6.3,6.3Z"/>
  <path class="cls-1" d="M139.3,36.05h-10v18.31h10v-18.31ZM137.76,52.82h-6.93v-15.24h6.93v15.24Z"/>
  <path class="cls-1" d="M285.02,87.27h-15.96v29.54h15.96v-29.54ZM283.49,88.81v16.23h-12.89v-16.23h12.89ZM270.6,115.28v-8.71h12.89v8.71h-12.89Z"/>
  <path class="cls-1" d="M310.23,87.27h-17.99v29.54h17.99v-29.54ZM308.7,88.81v16.23h-14.92v-16.23h14.92ZM293.77,115.28v-8.71h14.92v8.71h-14.92Z"/>
  <path class="cls-1" d="M333.4,87.27h-15.96v29.54h15.96v-29.54ZM331.87,88.81v16.23h-12.88v-16.23h12.88ZM318.98,115.28v-8.71h12.88v8.71h-12.88Z"/>
  <path class="cls-1" d="M269.48,227.58h15.96v-29.46h-15.96v29.46ZM271.01,199.65h12.88v26.39h-12.88v-26.39Z"/>
  <path class="cls-1" d="M317.86,227.58h15.96v-29.46h-15.96v29.46ZM319.39,199.65h12.88v26.39h-12.88v-26.39Z"/>
  <path class="cls-1" d="M285.02,164.49h-15.96v26.51h15.96v-26.51ZM283.49,189.47h-12.89v-23.44h12.89v23.44Z"/>
  <path class="cls-1" d="M333.4,164.49h-15.96v26.51h15.96v-26.51ZM331.87,189.47h-12.88v-23.44h12.88v23.44Z"/>
  <path class="cls-1" d="M311.45,164.39h-20.42v26.61h20.42v-26.61ZM309.91,189.47h-17.35v-23.54h17.35v23.54Z"/>
  <path class="cls-1" d="M312.01,63.31h-20.34v12.04h20.34v-12.04ZM310.48,73.81h-17.27v-8.97h17.27v8.97Z"/>
  <path class="cls-1" d="M301.33,54.92c4.79,0,8.68-3.89,8.68-8.68s-3.9-8.68-8.68-8.68-8.68,3.9-8.68,8.68,3.9,8.68,8.68,8.68ZM301.33,39.09c3.94,0,7.15,3.21,7.15,7.15s-3.21,7.15-7.15,7.15-7.15-3.21-7.15-7.15,3.21-7.15,7.15-7.15Z"/>
  <path class="cls-1" d="M285.02,125.13h-15.96v29.54h15.96v-29.54ZM283.49,126.66v16.23h-12.89v-16.23h12.89ZM270.6,153.13v-8.71h12.89v8.71h-12.89Z"/>
  <path class="cls-1" d="M292.24,154.64h17.99v-29.54h-17.99v29.54ZM293.77,153.1v-8.71h14.92v8.71h-14.92ZM308.7,126.63v16.23h-14.92v-16.23h14.92Z"/>
  <path class="cls-1" d="M333.4,125.13h-15.96v29.54h15.96v-29.54ZM331.87,126.66v16.23h-12.88v-16.23h12.88ZM318.98,153.13v-8.71h12.88v8.71h-12.88Z"/>
  <path class="cls-1" d="M369.52,110.14h-17.87v21.95h17.87v-21.95ZM367.98,120.34h-6.63v-8.67h6.63v8.67ZM359.81,111.67v8.67h-6.63v-8.67h6.63ZM353.18,121.88h6.63v8.67h-6.63v-8.67ZM361.35,130.55v-8.67h6.63v8.67h-6.63Z"/>
  <path class="cls-1" d="M391.02,110.14h-17.87v21.95h17.87v-21.95ZM389.49,120.34h-6.63v-8.67h6.63v8.67ZM381.32,111.67v8.67h-6.63v-8.67h6.63ZM374.69,121.88h6.63v8.67h-6.63v-8.67ZM382.85,130.55v-8.67h6.63v8.67h-6.63Z"/>
  <path class="cls-1" d="M412.53,110.14h-17.87v21.95h17.87v-21.95ZM410.99,120.34h-6.63v-8.67h6.63v8.67ZM402.83,111.67v8.67h-6.63v-8.67h6.63ZM396.2,121.88h6.63v8.67h-6.63v-8.67ZM404.36,130.55v-8.67h6.63v8.67h-6.63Z"/>
  <path class="cls-1" d="M369.51,139.76h-17.87v21.95h17.87v-21.95ZM367.98,149.96h-6.63v-8.67h6.63v8.67ZM359.81,141.29v8.67h-6.63v-8.67h6.63ZM353.18,151.5h6.63v8.67h-6.63v-8.67ZM361.35,160.17v-8.67h6.63v8.67h-6.63Z"/>
  <path class="cls-1" d="M391.02,139.76h-17.87v21.95h17.87v-21.95ZM389.48,149.96h-6.63v-8.67h6.63v8.67ZM381.32,141.29v8.67h-6.63v-8.67h6.63ZM374.69,151.5h6.63v8.67h-6.63v-8.67ZM382.85,160.17v-8.67h6.63v8.67h-6.63Z"/>
  <path class="cls-1" d="M412.52,139.76h-17.86v21.95h17.86v-21.95ZM410.99,149.96h-6.63v-8.67h6.63v8.67ZM402.82,141.29v8.67h-6.63v-8.67h6.63ZM396.19,151.5h6.63v8.67h-6.63v-8.67ZM404.36,160.17v-8.67h6.63v8.67h-6.63Z"/>
  <path class="cls-1" d="M351.82,190.86h17.86v-21.95h-17.86v21.95ZM353.35,180.65h6.63v8.67h-6.63v-8.67ZM361.52,189.32v-8.67h6.63v8.67h-6.63ZM368.14,179.12h-6.63v-8.67h6.63v8.67ZM359.98,170.45v8.67h-6.63v-8.67h6.63Z"/>
  <path class="cls-1" d="M373.32,190.86h17.87v-21.95h-17.87v21.95ZM374.86,180.65h6.63v8.67h-6.63v-8.67ZM383.02,189.32v-8.67h6.63v8.67h-6.63ZM389.65,179.12h-6.63v-8.67h6.63v8.67ZM381.49,170.45v8.67h-6.63v-8.67h6.63Z"/>
  <path class="cls-1" d="M394.83,190.86h17.87v-21.95h-17.87v21.95ZM396.36,180.65h6.63v8.67h-6.63v-8.67ZM404.53,189.32v-8.67h6.63v8.67h-6.63ZM411.16,179.12h-6.63v-8.67h6.63v8.67ZM402.99,170.45v8.67h-6.63v-8.67h6.63Z"/>
  <path class="cls-1" d="M382.08,97.26c4.62,0,8.37-3.76,8.37-8.37s-3.76-8.37-8.37-8.37-8.37,3.76-8.37,8.37,3.76,8.37,8.37,8.37ZM382.08,82.05c3.77,0,6.84,3.07,6.84,6.84s-3.07,6.84-6.84,6.84-6.84-3.07-6.84-6.84,3.07-6.84,6.84-6.84Z"/>
  <path class="cls-1" d="M202.99,241.16h269.44v-1.54h-49.16V87.71h-14.23l-18.58-27.14v-12.08h-14.05l-.03,12.07-18.59,27.15h-15.3v-31.57h-13.84l-19.81-29.19h5.02v-8.64h-24.94v8.64h5.01l-19.87,29.19h-13.77v58.1h-4.96l-25.27-42.7v-5.8c0-6.1-4.96-11.06-11.06-11.06s-11.06,4.96-11.06,11.06v5.93l-24.34,42.57h-5.84v-43.77h-12.51v3.8c-9.64-4.54-15.81-14.2-15.81-24.93v-10.39c0-8.72-7.09-15.81-15.81-15.81s-15.81,7.09-15.81,15.81v13.69c-1.12,9.39-7.05,17.57-15.6,21.6v-3.77h-12.51v169.16h-56.67v1.54h169.97ZM189.19,239.63v-32.74h12.26v32.74h-12.26ZM213.12,239.63v-32.74h12.26v32.74h-12.26ZM237.05,239.63v-32.74h12.26v32.74h-12.26ZM260.18,160.31h-82.43v-5.57h82.43v5.57ZM260.18,161.85v29.73h-82.43v-29.73h82.43ZM260.18,153.21h-82.43v-29.5h82.43v29.5ZM177.75,193.12h82.43v5h-82.43v-5ZM292.97,239.63v-39.98h17.35v39.98h-17.35ZM353.35,239.44v-23.68c0-2.14,1.74-3.87,3.87-3.87h7.05c2.14,0,3.87,1.74,3.87,3.87v23.68h-14.79ZM374.69,239.44v-33.33c0-2.14,1.74-3.87,3.87-3.87h7.05c2.14,0,3.87,1.74,3.87,3.87v33.33h-14.79ZM396.36,239.44v-23.68c0-2.14,1.74-3.87,3.87-3.87h7.05c2.14,0,3.87,1.74,3.87,3.87v23.68h-14.79ZM356.73,89.24l-3.7,5.41,1.27.87,23.61-34.48.02-11.02h10.98v11.01l23.61,34.48,1.27-.87-3.7-5.41h11.65v150.39h-9.03v-23.87c0-2.98-2.43-5.41-5.41-5.41h-7.05c-2.98,0-5.41,2.43-5.41,5.41v23.87h-3.81v-33.52c0-2.98-2.43-5.41-5.41-5.41h-7.05c-2.98,0-5.41,2.43-5.41,5.41v33.52h-3.47v-23.87c0-2.98-2.43-5.41-5.41-5.41h-7.05c-2.98,0-5.41,2.43-5.41,5.41v23.87h-9.33V89.24h14.25ZM261.82,57.67h13.05l21.96-32.26h-6.38v-5.57h21.87v5.57h-6.39l21.9,32.26h13.12v181.96h-29.09v-41.51h-20.42v41.51h-29.62V57.67ZM209.47,72.07v-6.34c0-5.25,4.27-9.53,9.53-9.53s9.53,4.27,9.53,9.53v6.22l25.02,42.28h-68.18l24.11-42.16ZM182.71,115.77h77.46v6.41h-82.43v-6.41h4.96ZM91.23,72h9.44v4.57l1.07-.45c9.62-4.06,16.37-12.99,17.61-23.4v-13.78c0-7.87,6.41-14.28,14.28-14.28s14.28,6.41,14.28,14.28v10.39c0,11.74,6.99,22.27,17.82,26.82l1.07.45v-4.6h9.44v15.71h-84.99v-15.71ZM126.34,239.63v-31.54h13.83v31.54h-13.83ZM140.16,206.55h-13.83v-2.55c0-1.98,1.61-3.6,3.6-3.6h6.63c1.98,0,3.6,1.61,3.6,3.6v2.55ZM141.7,239.63v-35.62c0-2.83-2.3-5.13-5.13-5.13h-6.63c-2.83,0-5.13,2.3-5.13,5.13v35.62h-33.58V89.24h84.99v24.99h-.05v125.39h-34.46ZM177.75,239.63v-39.98h82.43v39.98h-9.33v-34.27h-15.33v34.27h-8.6v-34.27h-15.33v34.27h-8.6v-34.27h-15.33v34.27h-9.91Z"/>
  <path class="cls-1" d="M266.41,357.95c-1.24-.85-2.73-1.44-4.47-1.77-1.74-.33-3.67-.46-5.78-.39-2.11.07-4.25.21-6.4.42-2.16.21-4.27.42-6.35.64-2.07.22-3.95.31-5.61.28-1.66-.03-3.05-.24-4.18-.65-1.13-.4-1.82-1.12-2.1-2.16-.36-1.36-.31-2.72.14-4.07.45-1.35,1.2-2.66,2.24-3.92,1.05-1.26,2.32-2.48,3.82-3.66,1.5-1.18,3.12-2.3,4.85-3.35,1.73-1.05,3.52-2.04,5.37-2.96,1.85-.91,3.63-1.73,5.34-2.44,1.71-.71,3.31-1.32,4.78-1.83s2.72-.89,3.73-1.16c.26-.07.57-.14.94-.22.37-.08.73-.12,1.08-.12.36,0,.68.06.97.19.3.13.49.37.59.75.05.2.09.4.11.6s.03.4.02.62l-.22.06c-.32.08-.5.28-.54.6,0,.09-.03.26-.08.51-.05.24-.08.51-.12.79-.03.29-.05.56-.07.81-.01.25-.01.4,0,.46.1.38.37.68.81.9.44.23.86.29,1.23.19.2-.05.35-.15.45-.31.1-.15.2-.31.31-.5.38-.68.63-1.42.77-2.19s.11-1.54-.09-2.29c-.18-.7-.57-1.32-1.18-1.87-.53-.51-1.13-.86-1.78-1.06-.66-.2-1.32-.3-2-.29s-1.36.08-2.05.21c-.69.13-1.36.29-1.99.45-1.48.39-3.32.99-5.53,1.82-2.21.83-4.52,1.83-6.94,3-2.41,1.17-4.8,2.5-7.17,3.98-2.36,1.48-4.42,3.08-6.17,4.79-1.75,1.71-3.06,3.51-3.94,5.41-.88,1.9-1.06,3.85-.54,5.84.39,1.5,1.2,2.63,2.41,3.38,1.22.75,2.69,1.25,4.41,1.51,1.72.26,3.63.33,5.74.22,2.1-.12,4.23-.29,6.38-.51,2.15-.22,4.27-.44,6.35-.64,2.08-.2,3.96-.26,5.63-.18,1.68.09,3.09.38,4.24.89,1.15.5,1.88,1.35,2.19,2.53s.23,2.41-.24,3.68c-.47,1.27-1.22,2.54-2.25,3.81-1.03,1.27-2.28,2.53-3.77,3.77-1.49,1.24-3.08,2.43-4.79,3.59-1.71,1.16-3.48,2.24-5.32,3.24-1.84,1.01-3.63,1.92-5.38,2.75-1.75.83-3.39,1.54-4.94,2.12-1.55.59-2.88,1.03-4.01,1.33-.78.2-1.62.39-2.52.57-.9.17-1.74.26-2.55.27-.8,0-1.49-.08-2.06-.27-.57-.19-.93-.54-1.07-1.07-.25-.95-.04-2.04.64-3.25.67-1.21,1.67-2.46,2.99-3.75,1.32-1.29,2.9-2.57,4.74-3.86,1.84-1.29,3.8-2.5,5.89-3.65,2.08-1.15,4.23-2.18,6.45-3.1,2.22-.92,4.35-1.65,6.41-2.19,1.62-.42,2.88-.62,3.79-.59.9.03,1.61.13,2.13.32.51.19.89.38,1.15.58.25.2.52.26.81.18.38-.1.52-.32.43-.67-.04-.14-.15-.32-.35-.53-.2-.21-.37-.37-.52-.49-.66-.51-1.42-.84-2.27-.98-.86-.15-1.75-.19-2.68-.13-.93.06-1.85.19-2.77.4-.92.21-1.77.42-2.55.62-1.76.46-3.71,1.13-5.83,2.01-2.12.88-4.23,1.89-6.33,3.02-2.1,1.14-4.12,2.37-6.05,3.72-1.94,1.34-3.6,2.7-5,4.09-1.4,1.39-2.46,2.76-3.19,4.13-.73,1.36-.93,2.65-.61,3.87.49,1.88,1.85,3.06,4.08,3.55,2.23.49,5.19.24,8.9-.73,1.65-.43,3.63-1.12,5.95-2.07,2.32-.95,4.72-2.09,7.22-3.42,2.49-1.33,4.94-2.81,7.32-4.44,2.39-1.63,4.47-3.33,6.27-5.11,1.79-1.78,3.15-3.6,4.07-5.45.92-1.85,1.15-3.67.68-5.46-.42-1.62-1.26-2.85-2.5-3.71Z"/>
  <path class="cls-1" d="M312.55,339.21c-.15.02-.29.1-.42.22-.13.13-.31.29-.52.51-.21.21-.47.46-.78.75-.31.29-.72.61-1.24.95-.21.18-.31.38-.28.58.05.33.24.59.59.8.35.21.67.29.97.24.21-.03.51-.15.9-.36.39-.21.79-.46,1.18-.74.4-.29.74-.59,1.02-.9.29-.31.42-.57.38-.78-.06-.39-.29-.71-.71-.96-.41-.26-.79-.36-1.11-.31Z"/>
  <path class="cls-1" d="M348.03,321.01c-.42-.29-.81-.41-1.17-.37-.33.03-.54.18-.63.43l-4.4,17.74c-.13.53-.24.98-.35,1.37-.11.39-.22.76-.33,1.12-.11.36-.23.71-.36,1.05-.13.35-.31.75-.53,1.23-.32-.75-.82-1.31-1.51-1.69-.69-.38-1.36-.53-2.01-.46-1.01.11-1.95.55-2.81,1.33-.87.78-1.6,1.7-2.21,2.76-.4.69-.71,1.41-.98,2.14-.77,1.1-1.52,2.09-2.21,2.96-1.3,1.62-2.44,2.92-3.43,3.92-.99,1-1.83,1.73-2.52,2.18-.69.45-1.24.7-1.62.75-.15.02-.24-.12-.28-.42-.08-.65-.09-1.41-.02-2.28.07-.87.16-1.76.29-2.68.12-.92.28-1.81.47-2.66.19-.85.35-1.6.48-2.26,1.41-1.93,2.75-3.99,4.02-6.17,1.27-2.19,2.37-4.29,3.3-6.33.93-2.03,1.65-3.9,2.15-5.59.5-1.69.7-3,.58-3.92-.1-.77-.45-1.41-1.06-1.92-.61-.51-1.3-.71-2.07-.62-.77.1-1.39.38-1.86.85-.47.47-.89.98-1.27,1.54-.46.66-.91,1.56-1.35,2.69s-.88,2.37-1.31,3.74c-.43,1.37-.84,2.82-1.23,4.34-.39,1.53-.76,3.02-1.1,4.46s-.65,2.8-.92,4.05c-.26,1.2-.48,2.21-.67,3.05-.3.42-.63.88-1.01,1.39-.78,1.05-1.63,2.09-2.56,3.1-.92,1.01-1.86,1.91-2.82,2.69-.96.78-1.85,1.21-2.69,1.31-.12.02-.19-.08-.22-.29-.09-.59-.1-1.25-.02-1.97.07-.72.18-1.45.33-2.18.15-.73.32-1.45.52-2.16.19-.71.36-1.36.48-1.95.04-.16.08-.34.12-.56.04-.22.05-.42.03-.59-.06-.39-.29-.71-.71-.96-.42-.26-.79-.36-1.11-.31-.35.05-.57.25-.64.59-.05.25-.1.52-.13.81-.03.29-.09.58-.17.86-.11.53-.23,1.04-.36,1.55-.36.51-.76,1.05-1.21,1.65-.76,1.01-1.57,1.99-2.4,2.94-.84.95-1.67,1.77-2.49,2.46-.82.69-1.54,1.08-2.16,1.19-.41.07-.63-.17-.65-.73-.02-.56.04-1.23.17-2.03.14-.8.27-1.62.41-2.48.14-.86.16-1.55.07-2.08-.1-.59-.39-1.09-.85-1.49-.47-.4-1.01-.55-1.63-.45-.5.09-1.02.36-1.54.81-.53.45-1.05,1.02-1.57,1.68-.52.67-1.04,1.42-1.55,2.25-.51.83-.99,1.67-1.46,2.51.45-2.66.93-5.28,1.44-7.87.51-2.59,1-5.2,1.49-7.84.1-.47.24-1.22.41-2.23.17-1.02.35-2.07.52-3.16.18-1.09.32-2.13.42-3.1.11-.97.13-1.64.06-1.99-.06-.38-.31-.7-.73-.94-.42-.24-.79-.34-1.12-.28-.36.06-.55.23-.6.51-.21,1.4-.42,2.68-.63,3.84s-.43,2.29-.67,3.39c-.23,1.1-.48,2.24-.73,3.4-.25,1.17-.53,2.46-.83,3.88-.04.13-.04.27-.02.41.03.15.08.26.17.33.09.08.19.17.3.27-.08.44-.22,1.21-.44,2.31-.22,1.1-.46,2.36-.71,3.77-.1.54-.2,1.11-.3,1.67-.69.92-1.42,1.91-2.21,2.96-.88,1.17-1.82,2.26-2.82,3.29-1,1.02-2.05,1.92-3.16,2.69-1.11.77-2.27,1.28-3.47,1.52-.53.11-.88.09-1.06-.04-.18-.13-.32-.46-.43-.99-.16-.79-.12-1.68.13-2.66.24-.98.62-1.91,1.13-2.79.51-.88,1.13-1.65,1.87-2.3s1.52-1.06,2.34-1.22c.21-.04.32.01.35.16.05.26.06.52.02.77-.04.25-.03.51.02.78.05.26.22.48.52.65.29.17.56.23.79.18.18-.03.31-.15.41-.36.1-.2.16-.43.19-.68.02-.25.03-.5,0-.76-.02-.25-.04-.44-.07-.56-.08-.38-.24-.7-.49-.95-.25-.26-.55-.46-.9-.62-.35-.16-.72-.26-1.09-.31-.38-.05-.74-.03-1.09.04-1.03.21-2,.65-2.91,1.34-.91.69-1.69,1.51-2.32,2.46-.63.95-1.09,1.97-1.37,3.07s-.32,2.15-.12,3.18c.27,1.35.9,2.33,1.89,2.94.99.61,2.15.78,3.47.52,1.26-.25,2.48-.81,3.64-1.67,1.17-.86,2.27-1.87,3.31-3.02.98-1.09,1.87-2.24,2.68-3.43-.18,1.01-.36,1.99-.52,2.91-.24,1.33-.42,2.47-.55,3.42-.12.95-.17,1.51-.14,1.69.06.35.3.66.71.92s.79.37,1.14.3c.24-.04.44-.2.6-.47.25-.47.49-.96.7-1.49.21-.52.43-1.02.65-1.48.37-.82.8-1.72,1.27-2.68.47-.96.97-1.92,1.51-2.88.53-.96,1.09-1.88,1.66-2.77.57-.89,1.17-1.66,1.78-2.31-.1.84-.24,1.76-.43,2.76-.19,1-.22,1.89-.09,2.65.16.91.6,1.65,1.31,2.21.72.56,1.51.76,2.36.62.86-.15,1.76-.63,2.73-1.45.97-.82,1.9-1.77,2.81-2.85.42-.5.81-1,1.19-1.5-.06.66-.05,1.31.05,1.97.14.95.59,1.7,1.36,2.27.76.57,1.62.78,2.57.64,1.04-.15,2.05-.64,3.05-1.47,1-.83,1.94-1.8,2.83-2.91.4-.5.79-1.02,1.16-1.54-.08.72-.14,1.42-.17,2.11-.03.74,0,1.41.08,2,.09.68.27,1.25.54,1.7.27.45.56.81.89,1.08.32.28.64.46.95.56.31.1.57.13.78.1.95-.12,1.93-.56,2.95-1.31,1.02-.75,2.07-1.74,3.14-2.98.83-.96,1.69-2.09,2.56-3.31.09.85.42,1.59.98,2.2.56.62,1.3.88,2.22.78,1.13-.12,2.27-.81,3.41-2.07,1.15-1.26,2.19-2.83,3.13-4.71-.47,1.79-.87,3.71-1.2,5.74-.33,2.03-.46,3.92-.4,5.66.05,1.05.22,2.13.5,3.26.28,1.13.81,2.07,1.58,2.83.2.19.46.38.78.57.32.19.63.27.93.24.35-.04.52-.24.48-.59-.03-.33-.17-.55-.41-.66-.24-.11-.44-.28-.62-.5-.13-.17-.26-.4-.37-.71-.11-.31-.19-.63-.24-.99s-.1-.7-.13-1.02c-.03-.33-.06-.61-.09-.85-.08-.74-.06-1.66.05-2.76s.29-2.32.54-3.67.53-2.79.85-4.33c.32-1.54.67-3.11,1.04-4.71.49-2.19,1-4.41,1.53-6.66s1.05-4.43,1.56-6.55c.52-2.11,1-4.07,1.46-5.88s.83-3.34,1.12-4.61c-.04-.36-.27-.68-.69-.96ZM323.68,339.41c.27-1.17.58-2.41.92-3.72.34-1.31.71-2.62,1.1-3.92.39-1.3.8-2.48,1.24-3.53.44-1.05.88-1.92,1.31-2.61.44-.69.88-1.06,1.33-1.12.15-.02.24.07.26.28.11.86-.02,1.97-.39,3.33-.37,1.36-.88,2.83-1.53,4.42-.65,1.59-1.42,3.24-2.28,4.93-.87,1.7-1.74,3.32-2.63,4.88.17-.8.39-1.79.66-2.96ZM338.41,344.9c-.11.34-.25.66-.4.94-.15.29-.29.54-.42.76-.13.23-.18.4-.17.52.02.24.19.48.48.72-.23.38-.54.86-.93,1.43-.39.57-.83,1.11-1.32,1.63-.49.52-.99.97-1.52,1.36-.53.39-1.06.61-1.6.66-.09,0-.14-.03-.15-.12-.08-.74.03-1.64.32-2.7.29-1.05.7-2.07,1.21-3.06.51-.99,1.11-1.84,1.81-2.56.69-.72,1.39-1.12,2.11-1.19.42-.04.65.17.7.65.03.3,0,.62-.12.96Z"/>
  <path class="cls-1" d="M394.35,331.63c-.15-.08-.34-.18-.57-.27-.23-.1-.42-.15-.57-.14-.39.01-.58.2-.57.55.01.36.12.59.33.69.21.1.44.23.69.41s.48.47.7.88c.22.41.35,1.11.38,2.1.02.66-.06,1.44-.25,2.34-.18.9-.43,1.84-.75,2.8s-.69,1.92-1.13,2.86c-.44.94-.91,1.78-1.41,2.51-.5.73-1.02,1.33-1.54,1.8-.53.46-1.04.7-1.55.72-.36,0-.64-.09-.84-.29-.2-.2-.35-.45-.45-.75-.1-.3-.16-.62-.19-.96-.03-.34-.04-.65-.05-.92-.03-.93.11-1.89.41-2.88.03-.06.04-.15.04-.27-.01-.36-.2-.69-.57-.99-.37-.3-.72-.45-1.04-.44-.24,0-.43.12-.58.33-.88,1.58-1.65,2.91-2.31,3.97-.66,1.07-1.22,1.91-1.7,2.54-.47.63-.87,1.07-1.17,1.33-.31.26-.56.4-.77.4-.06,0-.1-.19-.1-.58-.02-.72.07-1.5.27-2.34.2-.84.46-1.69.78-2.53.32-.85.68-1.66,1.07-2.43.4-.78.78-1.47,1.15-2.08.09-.15.13-.29.12-.41-.01-.39-.21-.73-.59-1.04-.38-.3-.74-.45-1.07-.44-.27,0-.46.09-.58.24-.43.49-.86,1.18-1.29,2.06-.17.36-.3.76-.46,1.14-.41.44-.89.92-1.45,1.44-.6.56-1.25,1.08-1.96,1.55-.71.47-1.39.73-2.04.77-.33.02-.51-.23-.54-.73-.03-.48.03-.97.16-1.47.13-.5.28-.97.44-1.42.15-.44.3-.83.45-1.17.14-.34.21-.57.21-.69-.02-.36-.22-.7-.6-1.02-.38-.32-.76-.47-1.15-.45-.21.01-.58.3-1.12.87-.54.57-1.09,1.22-1.67,1.94-.57.72-1.09,1.42-1.56,2.09-.47.67-.76,1.12-.87,1.33.08-.24.18-.57.3-.96.13-.4.25-.81.38-1.24.13-.43.23-.83.31-1.21.08-.38.12-.67.11-.88-.02-.39-.23-.73-.62-1.02-.39-.29-.75-.43-1.08-.41-.48.03-.71.2-.69.53.01.18-.05.5-.17.97-.12.45-.26.97-.42,1.54-1.05,1.02-2.08,1.99-3.08,2.89-1.08.97-2.15,1.83-3.23,2.58s-2.17,1.35-3.28,1.81c-1.1.47-2.26.75-3.49.84-.45.03-.74-.02-.89-.15-.15-.14-.24-.46-.28-.97s-.02-1,.06-1.49c.21.04.41.06.59.04.18-.01.34-.03.49-.04.68-.06,1.41-.27,2.17-.65.76-.38,1.47-.86,2.11-1.45.64-.59,1.17-1.25,1.57-1.97.41-.72.58-1.44.52-2.16-.06-.78-.44-1.39-1.12-1.85-.68-.45-1.38-.65-2.1-.6-1.07.09-2.04.44-2.91,1.05-.87.61-1.59,1.37-2.18,2.27-.59.9-1.03,1.89-1.31,2.96-.29,1.07-.39,2.1-.31,3.09.11,1.4.6,2.46,1.47,3.17s2,1.01,3.4.9c1.28-.1,2.56-.47,3.85-1.1,1.28-.63,2.52-1.4,3.71-2.32,1.07-.83,2.04-1.74,2.95-2.7-.06.19-.13.41-.2.69-.14.49-.28.99-.41,1.51-.14.52-.25,1.01-.34,1.48s-.13.79-.12.97c.02.39.23.73.62,1.02.39.29.75.43,1.08.41.18,0,.31-.06.39-.13.09-.08.18-.2.29-.35.78-1.45,1.63-2.94,2.53-4.46.9-1.52,1.87-2.98,2.89-4.39-.02.12-.03.3-.01.54.06,1.05.38,1.93.96,2.66.58.73,1.44,1.06,2.57,1,.6-.03,1.21-.23,1.83-.6.52-.3,1.01-.67,1.49-1.07-.07.27-.14.54-.19.8-.2.95-.29,1.75-.27,2.41.02.48.09.94.22,1.38.13.44.32.84.57,1.19.25.35.56.63.94.85.38.21.84.31,1.38.3.51-.02,1.18-.51,2.02-1.47s1.77-2.35,2.8-4.14c.14.59.33,1.16.59,1.71.26.55.57,1.02.96,1.41s.83.7,1.35.93c.52.22,1.1.33,1.76.31.81-.02,1.56-.29,2.27-.81.7-.52,1.35-1.18,1.94-2.01.59-.83,1.11-1.75,1.56-2.78.45-1.03.82-2.06,1.12-3.08.3-1.03.52-2.01.68-2.96.15-.95.22-1.75.2-2.41-.03-1.05-.22-2.05-.56-3.01-.34-.96-.99-1.73-1.93-2.3ZM352.76,342.44c.79-.92,1.68-1.43,2.67-1.54.06,0,.09.02.1.08.02.3-.07.67-.27,1.13-.2.45-.5.91-.9,1.38-.4.47-.88.89-1.45,1.26-.57.38-1.22.65-1.96.83.41-1.17,1.02-2.22,1.82-3.14Z"/>
  <path class="cls-1" d="M471.34,340.79c-.33-.03-.92.2-1.76.71-.85.5-1.75,1.09-2.7,1.76-.95.67-1.85,1.33-2.7,1.99-.84.65-1.42,1.12-1.71,1.38.22-.4.45-.83.69-1.31.24-.47.47-.93.68-1.38.21-.45.39-.84.55-1.19.15-.34.24-.61.26-.78.03-.36-.12-.72-.46-1.08-.34-.36-.69-.56-1.05-.6-.36-.04-.6.12-.72.47-.2.49-.4.95-.61,1.36-.2.41-.42.85-.64,1.33-1.03.72-2.04,1.42-3.02,2.06-1.21.79-2.41,1.48-3.59,2.05-1.18.57-2.35,1-3.51,1.29-1.16.29-2.35.39-3.58.3-.45-.03-.73-.13-.86-.29-.12-.16-.17-.49-.13-1,.04-.51.13-.99.29-1.46.21.07.4.12.58.13.18.01.34.03.49.04.69.05,1.44-.05,2.25-.31.81-.26,1.58-.63,2.31-1.11s1.35-1.05,1.86-1.71c.51-.65.79-1.34.85-2.05.06-.77-.22-1.44-.82-1.99-.6-.55-1.26-.86-1.98-.91-1.07-.08-2.08.12-3.03.59s-1.78,1.11-2.5,1.91c-.36.41-.69.84-.99,1.3-.51.45-1.05.95-1.68,1.53-.89.84-1.85,1.64-2.85,2.4-1.01.76-2.03,1.41-3.06,1.94-1.03.53-2.01.78-2.93.73-.84-.04-1.39-.3-1.65-.78-.26-.48-.45-.97-.58-1.49.76-.86,1.56-1.68,2.41-2.47.85-.78,1.72-1.49,2.62-2.14.34-.22.7-.44,1.06-.65.37-.21.72-.42,1.06-.65.25-.17.39-.37.44-.61.11-.35.06-.72-.15-1.11s-.5-.59-.89-.6c-.21,0-.5.1-.87.32-.37.22-.65.4-.83.54-1.18.81-2.28,1.68-3.32,2.6-1.03.92-2.01,1.9-2.93,2.94l7.6-17.96c.13-.29.32-.74.56-1.34.24-.6.48-1.23.72-1.9.24-.66.45-1.28.63-1.86.18-.57.27-1,.29-1.27.02-.36-.15-.71-.49-1.06-.34-.35-.69-.53-1.05-.54-.36-.02-.59.09-.69.33-.86,2.38-1.81,4.7-2.83,6.96-1.02,2.26-2.06,4.47-3.12,6.63-.07.12-.1.23-.11.35-.01.21.04.38.16.5.11.13.17.2.17.23-1.01,2.35-2,4.68-3,7.02-.14.1-.29.23-.5.42-.46.42-1.01.89-1.65,1.4-.64.51-1.33.97-2.07,1.39-.74.42-1.44.62-2.1.6-.33,0-.49-.27-.47-.78.01-.48.11-.96.28-1.45.17-.49.36-.95.55-1.38.19-.43.37-.81.54-1.13.17-.32.26-.55.26-.67,0-.36-.16-.71-.51-1.07-.35-.35-.72-.53-1.11-.54-.21,0-.6.26-1.18.78-.58.52-1.19,1.12-1.81,1.8-.63.67-1.21,1.32-1.73,1.95-.53.63-.85,1.05-.97,1.26.09-.24.22-.55.38-.93.16-.39.32-.78.48-1.2.16-.42.3-.81.41-1.18.11-.37.17-.66.18-.87,0-.39-.17-.74-.54-1.07-.37-.32-.71-.49-1.04-.5-.48-.01-.72.15-.73.48,0,.18-.09.5-.25.96-.15.42-.32.91-.53,1.45-1.15.95-2.28,1.85-3.36,2.68-1.15.88-2.3,1.65-3.43,2.31-1.14.66-2.28,1.17-3.41,1.55-1.14.37-2.32.56-3.54.56-.45,0-.74-.07-.88-.23-.13-.15-.2-.48-.2-.99,0-.51.06-1,.18-1.48.21.06.4.09.58.09h.49c.69,0,1.43-.16,2.22-.47.79-.31,1.53-.74,2.22-1.28.69-.54,1.26-1.15,1.73-1.84.46-.69.7-1.39.7-2.11,0-.78-.32-1.42-.96-1.93-.64-.51-1.32-.76-2.04-.76-1.07,0-2.07.27-2.98.81-.91.54-1.7,1.23-2.35,2.09-.66.85-1.18,1.8-1.55,2.85-.37,1.05-.56,2.06-.56,3.05,0,1.41.4,2.5,1.21,3.28.81.78,1.91,1.17,3.32,1.17,1.29,0,2.6-.26,3.93-.78,1.33-.52,2.62-1.19,3.88-2.02,1.16-.76,2.23-1.6,3.22-2.51-.08.19-.17.42-.28.73-.18.47-.35.96-.53,1.47-.18.51-.33.99-.46,1.45s-.2.78-.2.96c0,.39.17.74.54,1.07.37.32.71.49,1.04.5.18,0,.32-.03.41-.1.09-.07.2-.18.32-.33.9-1.39,1.86-2.8,2.88-4.24,1.02-1.44,2.1-2.82,3.24-4.14-.03.12-.05.3-.06.54-.03,1.05.22,1.96.74,2.73.52.78,1.35,1.18,2.48,1.2.6.02,1.22-.13,1.87-.45.65-.31,1.28-.7,1.89-1.17.09-.07.17-.15.26-.23-1.31,3.13-2.56,6.31-3.72,9.56-.03.09-.05.18-.06.27-.02.36.15.7.49,1.03s.7.5,1.05.52c.27.01.48-.1.62-.33.15-.23.27-.47.37-.7.6-1.26,1.22-2.45,1.88-3.57.65-1.12,1.43-2.23,2.31-3.33.44.74,1.02,1.35,1.73,1.84.71.48,1.49.74,2.32.78,1.16.06,2.31-.16,3.45-.67,1.13-.5,2.19-1.15,3.19-1.96.6-.49,1.18-1.01,1.73-1.56,0,.06-.02.11-.03.17-.1,1.4.22,2.52.97,3.35.75.84,1.82,1.3,3.22,1.41,1.28.09,2.61-.07,3.97-.5,1.37-.42,2.71-1,4.02-1.73.98-.54,1.89-1.16,2.76-1.8-.23.49-.46.97-.65,1.42-.26.62-.4,1.1-.43,1.42-.03.36.11.72.43,1.08s.66.56,1.02.6c.15.02.31-.04.49-.15s.45-.34.81-.66c.6-.57,1.25-1.19,1.97-1.86.71-.66,1.43-1.32,2.15-1.97.72-.65,1.44-1.26,2.14-1.84.7-.58,1.34-1.05,1.92-1.41-.76,1.31-1.34,2.56-1.75,3.77-.4,1.21-.65,2.26-.74,3.15-.08.83-.07,1.55.03,2.17.1.61.26,1.12.48,1.54.21.41.45.72.72.93.26.21.52.32.76.35.42.04.64-.13.68-.52.02-.21,0-.41-.08-.59-.07-.19-.14-.41-.2-.67-.06-.26-.12-.58-.18-.97-.05-.38-.05-.87.01-1.46.08-.77.26-1.55.55-2.33s.63-1.54,1.02-2.29.8-1.48,1.23-2.22c.43-.74.84-1.46,1.21-2.18.04-.06.06-.14.07-.26.03-.36-.12-.72-.45-1.08-.34-.36-.69-.56-1.05-.6ZM404.39,340.27c.87-.85,1.79-1.29,2.78-1.32.06,0,.09.03.09.09,0,.3-.12.66-.36,1.1s-.58.87-1.01,1.3c-.44.43-.95.81-1.55,1.14-.6.33-1.27.55-2.02.67.51-1.14,1.2-2.13,2.07-2.98ZM449.8,341.84c.93-.79,1.89-1.16,2.87-1.12.06,0,.09.04.08.1-.02.3-.17.65-.44,1.07-.27.42-.64.82-1.1,1.22-.47.4-1.01.74-1.63,1.03-.62.28-1.31.46-2.06.52.59-1.1,1.35-2.04,2.27-2.82Z"/>
</svg>