<svg width="600" height="400" viewBox="0 0 600 400" fill="none" xmlns="http://www.w3.org/2000/svg">
  <!-- Background -->
  <rect width="600" height="400" fill="#1E3A3F"/>
  
  <!-- Amsterdam Canal Houses -->
  <g transform="translate(130, 100)" stroke="#F5EFE6" stroke-width="2" fill="none">
    <!-- House 1 -->
    <path d="M 0 100 L 0 40 L 20 20 L 40 40 L 40 100 Z"/>
    <rect x="8" y="50" width="8" height="10"/>
    <rect x="24" y="50" width="8" height="10"/>
    <rect x="8" y="65" width="8" height="10"/>
    <rect x="24" y="65" width="8" height="10"/>
    <rect x="8" y="80" width="8" height="10"/>
    <rect x="24" y="80" width="8" height="10"/>
    <path d="M 12 90 L 12 100 L 28 100 L 28 90 L 12 90 M 12 90 L 20 85 L 28 90" fill="none"/>
    
    <!-- House 2 -->
    <path d="M 50 100 L 50 30 L 70 15 L 90 30 L 90 100 Z"/>
    <circle cx="70" cy="25" r="4"/>
    <rect x="58" y="40" width="8" height="10"/>
    <rect x="74" y="40" width="8" height="10"/>
    <rect x="58" y="55" width="8" height="10"/>
    <rect x="74" y="55" width="8" height="10"/>
    <rect x="58" y="70" width="8" height="10"/>
    <rect x="74" y="70" width="8" height="10"/>
    <rect x="62" y="85" width="16" height="15"/>
    
    <!-- House 3 -->
    <path d="M 100 100 L 100 35 L 120 20 L 140 35 L 140 100 Z"/>
    <rect x="115" y="25" width="10" height="8"/>
    <rect x="108" y="45" width="8" height="10"/>
    <rect x="124" y="45" width="8" height="10"/>
    <rect x="108" y="60" width="8" height="10"/>
    <rect x="124" y="60" width="8" height="10"/>
    <rect x="108" y="75" width="8" height="10"/>
    <rect x="124" y="75" width="8" height="10"/>
    <path d="M 112 90 L 112 100 L 128 100 L 128 90" fill="none"/>
    
    <!-- House 4 -->
    <path d="M 150 100 L 150 45 L 165 35 L 180 45 L 180 100 Z"/>
    <circle cx="165" cy="40" r="3"/>
    <rect x="156" y="55" width="6" height="8"/>
    <rect x="167" y="55" width="6" height="8"/>
    <rect x="156" y="68" width="6" height="8"/>
    <rect x="167" y="68" width="6" height="8"/>
    <rect x="156" y="81" width="6" height="8"/>
    <rect x="167" y="81" width="6" height="8"/>
    <rect x="159" y="92" width="12" height="8"/>
  </g>
  
  <!-- Ground line -->
  <line x1="130" y1="200" x2="310" y2="200" stroke="#F5EFE6" stroke-width="2"/>
  
  <!-- AMSTERDAM text -->
  <text x="155" y="250" font-family="Arial, sans-serif" font-size="42" font-weight="bold" fill="#F5EFE6" letter-spacing="2">
    AMSTERDAM
  </text>
  
  <!-- XXX Amsterdam symbols -->
  <g transform="translate(430, 230)" fill="#F5EFE6">
    <text font-family="Arial, sans-serif" font-size="16" font-weight="bold">XXX</text>
  </g>
  
  <!-- Schilderwerken text in script style -->
  <text x="280" y="285" font-family="'Brush Script MT', cursive" font-size="32" fill="#F5EFE6" font-style="italic">
    Schilderwerken
  </text>
</svg>

